<svg xmlns="http://www.w3.org/2000/svg" viewBox="0 0 1234.58 272.55"><defs><style>.cls-1{fill:#fff;}.cls-2{fill:#3174f0;}.cls-3{fill:#e63125;}.cls-4{fill:#1f8238;}.cls-5{fill:#e39f00;}.cls-6{fill:#249a41;}.cls-7{fill:#f6ad01;}</style></defs><title>header-logo</title><g id="Layer_2" data-name="Layer 2"><g id="Layer_1-2" data-name="Layer 1"><path class="cls-1" d="M213.24,71c29.18-22.48,73-23.79,103.2-2.61,4.16,3.36,8.83,6.39,12,10.76-6.84,7.08-14,13.93-21.24,20.54C288.41,77.75,252,76.73,230.37,95c-8.06,6.36-13.42,15.48-16.88,25-1.46,6-2.63,12-2.4,18.2-.6,16.29,6.37,32.84,19,43.31a55.25,55.25,0,0,0,37.06,13c16.07.65,32.62-6.34,42.26-19.42A59.31,59.31,0,0,0,317,156.86q-25.65,0-51.32,0c0-8.79-.1-17.58.1-26.36,26.66-.1,53.33,0,80,0,4.11,23.55-.85,49.86-17.42,67.81-14.57,16.27-36.44,25.09-58.12,25.07A86.83,86.83,0,0,1,217.3,209a83.22,83.22,0,0,1-33.73-47,88.92,88.92,0,0,1,.49-48.95C189.37,96.58,199.23,81.29,213.24,71Z"/><path class="cls-1" d="M589.21,57.11a92.26,92.26,0,0,1,52.68,0c13.37,3.89,25.93,11.42,35,22-6.47,7.17-13.83,13.49-20.43,20.55-6.25-6-13.22-11.53-21.55-14.2-9.16-3-19.06-4.32-28.58-2.47-16.26,2.14-31.43,12.1-39.38,26.52-11.51,20.47-9.72,48.26,5.8,66.2a55.92,55.92,0,0,0,34.42,18.43,96.41,96.41,0,0,0,19.44-.24c13-2.44,25.93-9.41,32.79-21.08a49.47,49.47,0,0,0,6.14-16c-17,0-34,0-51,0v-26.4c26.59,0,53.17.08,79.74,0,4.62,23.11-.68,48.9-16.38,66.91-12,13.85-29.38,22.62-47.47,25.15-19.58,2.64-40.3.3-57.71-9.48a80.75,80.75,0,0,1-33.05-33c-15.35-27.58-13.94-63.87,4.11-89.86A82.82,82.82,0,0,1,589.21,57.11Z"/><path class="cls-1" d="M972.17,56.37c4.51-1.1,9.83-.94,13.48,2.32,6.75,4.7,7.77,15.42,1.84,21.22-5.93,7.08-18.36,5.77-22.86-2.25C959.51,70.2,963.82,59.23,972.17,56.37Z"/><path class="cls-1" d="M1102.81,56.36c4.79-1.23,10.4-.75,14.12,2.85,6.7,5.28,6.55,16.42,0,21.78-6.43,6.17-18.15,4-22.1-4C1090.17,69.57,1094.64,59,1102.81,56.36Z"/><path class="cls-1" d="M736.8,57.17q10.44.06,20.88,0c-.11,46.92,0,93.84,0,140.76H827v19.7c-30.08,0-60.14.06-90.21,0Q736.88,137.37,736.8,57.17Z"/><path class="cls-1" d="M373,56.73c18.43.25,36.89-.16,55.31.3,14,.17,28.37,2.24,41,8.65a71.56,71.56,0,0,1,33.9,33.26c7.76,15.52,9.93,33.38,8.15,50.51-1.43,15-6.85,29.81-16.25,41.71-10.28,13-25.26,21.64-41.18,25.71-9.49,2.58-19.38,3.28-29.19,3.23-17.27,0-34.52,0-51.78,0Q373,138.43,373,56.73Zm30.89,29.4v105c9,0,18.1.06,27.15,0,11.27-1,23-3.44,32.1-10.61,9.75-7,15.5-18.52,17.37-30.2,1.7-14,1-29.08-6.41-41.48-7.56-13.49-22.87-20.71-37.77-22.34C425.48,85.7,414.66,86.23,403.85,86.13Z"/><path class="cls-1" d="M868.21,110c12.7-6.37,27.78-6.94,41.37-3.33S934.23,120.43,940,133a76.89,76.89,0,0,1,5.79,33.71l-86.16,0c0,10.78,4.76,21.73,13.49,28.28,6.55,5.54,15.38,7.9,23.87,7.31,12.23-.1,23.15-8.54,28.54-19.17,6.59,1.68,12.24,5.73,18.51,8.28-8.68,17.4-27.45,29.46-47,29.44-15.22,1.13-31.15-4.18-41.72-15.38A56.38,56.38,0,0,1,839,168.9c0-7-.55-14,1.11-20.85A56.51,56.51,0,0,1,868.21,110Zm6.13,18.64c-7.11,4.61-11.23,12.67-13,20.76,21,0,41.95,0,62.93,0a28.65,28.65,0,0,0-20.41-24.79C894,122,882.75,122.44,874.34,128.66Z"/><path class="cls-1" d="M1041.78,115.69a40,40,0,0,1,23.13-10.78c5.71-.46,11.37.83,16.86,2.26-1.46,6.79-4.2,13.21-6,19.91-6.15-1.2-12.55-1.78-18.72-.5-13.32,3.58-22.81,17.3-22.3,30.93,0,20.05.1,40.08.1,60.12h-20.65V107.81h19.7c0,6.25-.11,12.5.1,18.77C1036.49,122.87,1038.2,118.52,1041.78,115.69Z"/><path class="cls-1" d="M1171.73,105.77a80,80,0,0,1,23.78-.69c11.46,1.66,22.93,6.91,30,16.34a42.84,42.84,0,0,1,8.49,28.84c1,22.43.36,44.91.53,67.37-6.67,0-13.34,0-20,0,0-5.23,0-10.45,0-15.68-4.62,5.16-8.94,10.79-15.18,14.13a37,37,0,0,1-19.66,4.86,43.69,43.69,0,0,1-26.5-7.59c-7.77-5.62-14-14-15.37-23.63-.63-7.34-.6-15.17,3-21.83,3.81-8,11.2-13.57,19.13-17,10.26-4.09,21.62-5.05,32.52-3.76,7.7.38,15.16,2.72,22.16,5.84,0-4.87.28-10-2-14.51a29.28,29.28,0,0,0-16.11-14,34.46,34.46,0,0,0-22.81.65c-6.2,2.24-11.12,7-14.82,12.36-6-4-12-7.84-18.14-11.42A49,49,0,0,1,1171.73,105.77Zm-1,60.92c-5.32,3-10.65,7.38-11.77,13.71-1.89,6.23,1.08,13.07,6.15,16.89,10.62,8.84,27.18,6.77,37.16-2.07,7.41-6,13.19-15,12.27-24.89a39.39,39.39,0,0,0-13.62-6C1191,162.39,1180.07,162,1170.75,166.69Z"/><path class="cls-1" d="M966.53,107.81h20.74V217.63H966.53Z"/><path class="cls-1" d="M1097.17,107.81c6.91,0,13.81,0,20.73,0q0,54.92,0,109.83h-20.73Z"/><path class="cls-2" d="M8.68.17c9.37-.41,18.74,0,28.1.11C71.05,57.7,105.72,114.89,140,172.28c-8.12,14.35-16.38,28.67-25.34,42.52.58-5.84,1.56-12.12-1.46-17.51-4.91-8.83-10.56-17.24-15.4-26.11-7.71-13.89-16.35-27.27-24.32-41a22,22,0,0,0-2.24-3.24C47.89,88.76,25.22,50.14,1.87,12,.18,9.41-.52,6,.9,3.16,2.48.55,5.9.1,8.68.17Z"/><path class="cls-3" d="M36.78.28C46.38.09,56,.27,65.6.17A26.32,26.32,0,0,1,86.8,10.48q26.08,43.35,52.08,86.77c5.64,10.07,12.61,19.4,17.41,29.94,3.2,6.63,2.44,14.74-1.26,21-5,8.06-10,16.07-15,24.09C105.72,114.89,71.05,57.7,36.78.28Z"/><path class="cls-4" d="M71.28,126.91a22,22,0,0,1,2.24,3.24c8,13.76,16.61,27.14,24.32,41-5.54,7.63-9.72,16.22-14.77,24.2l-.2.32c-8.14-6.22-16.51-12.14-24.75-18.23a17.32,17.32,0,0,1-4.52-3.64c6-9.71,12.28-19.25,17.2-29.54C73.28,138.84,72.73,132.55,71.28,126.91Z"/><path class="cls-5" d="M83.07,195.38c5.05-8,9.23-16.57,14.77-24.2,4.84,8.87,10.49,17.28,15.4,26.11,3,5.39,2,11.67,1.46,17.51a12.11,12.11,0,0,1-1.75,2.79C103,210.21,92.81,203.07,83.07,195.38Z"/><path class="cls-6" d="M3.31,258.33C20.08,230.16,37,202.06,53.6,173.83a17.36,17.36,0,0,0,4.52,3.65c8.24,6.09,16.61,12,24.75,18.24-15.38,25.41-30.54,51-46,76.37-8.76.64-17.77.16-26.62.32-3.48,0-7.95-.21-9.7-3.81S1.48,261.34,3.31,258.33Z"/><path class="cls-7" d="M82.44,195.7l.2-.32c9.88,7.71,20.2,14.86,30.31,22.27-8.51,13.75-16.55,27.8-25.18,41.48a26.33,26.33,0,0,1-21.53,13c-10.12,1-20.29,0-30.42.06C51.46,246.74,66.84,221.15,82.44,195.7Z"/></g></g></svg>