<?xml version="1.0" standalone="no"?>
<!DOCTYPE svg PUBLIC "-//W3C//DTD SVG 20010904//EN"
 "http://www.w3.org/TR/2001/REC-SVG-20010904/DTD/svg10.dtd">
<svg version="1.0" xmlns="http://www.w3.org/2000/svg"
 width="1708.000000pt" height="1708.000000pt" viewBox="0 0 1708.000000 1708.000000"
 preserveAspectRatio="xMidYMid meet">
<metadata>
Created by potrace 1.11, written by Peter Selinger 2001-2013
</metadata>
<g transform="translate(0.000000,1708.000000) scale(0.100000,-0.100000)"
fill="#000000" stroke="none">
<path d="M4287 17074 c-1 -1 -74 -4 -162 -7 -88 -3 -171 -8 -185 -11 -14 -3
-41 -9 -60 -12 -57 -10 -168 -74 -205 -117 -95 -110 -109 -320 -34 -492 17
-41 148 -262 244 -415 23 -37 113 -183 130 -212 38 -63 116 -193 280 -463 104
-170 207 -341 230 -380 23 -38 147 -243 275 -455 128 -212 243 -403 256 -425
12 -22 203 -339 423 -705 370 -615 455 -757 536 -894 17 -28 59 -99 95 -159
36 -59 81 -134 100 -166 19 -33 193 -321 385 -641 193 -319 357 -593 366 -608
63 -105 609 -1006 756 -1247 352 -576 332 -542 352 -629 86 -377 73 -712 -39
-974 -43 -101 -213 -430 -290 -562 -14 -25 -29 -52 -33 -60 -5 -8 -13 -24 -20
-35 -7 -11 -32 -54 -55 -95 -24 -41 -80 -137 -126 -213 -46 -76 -87 -143 -90
-150 -3 -7 -33 -54 -66 -106 -33 -51 -60 -95 -60 -98 0 -2 -17 -30 -38 -61
-21 -31 -49 -76 -62 -99 -13 -24 -27 -43 -32 -43 -4 0 -8 -5 -8 -10 0 -6 -44
-81 -98 -168 -54 -86 -181 -296 -282 -467 -101 -170 -219 -371 -263 -445 -44
-74 -85 -144 -91 -155 -19 -33 -367 -618 -384 -645 -9 -14 -22 -34 -28 -45 -6
-11 -118 -200 -249 -420 -131 -220 -250 -420 -264 -443 -14 -24 -33 -56 -42
-70 -9 -15 -114 -191 -234 -392 -119 -201 -227 -381 -240 -400 -21 -33 -109
-180 -545 -915 -95 -159 -181 -302 -191 -317 -10 -15 -19 -30 -19 -33 0 -3 -8
-18 -19 -33 -10 -15 -85 -139 -166 -277 -81 -137 -158 -266 -170 -285 -60 -94
-204 -341 -227 -390 -38 -80 -56 -158 -52 -231 2 -63 4 -75 18 -114 29 -80 97
-160 167 -196 138 -70 201 -77 704 -79 682 -3 946 -1 1150 7 229 9 688 8 1030
-2 419 -14 790 -10 1040 10 244 20 264 22 384 51 286 70 546 214 757 420 113
109 178 194 279 359 267 436 530 873 752 1250 52 88 98 167 103 175 5 8 56 94
113 190 245 415 546 916 586 975 14 22 34 49 44 60 9 10 31 46 48 80 17 33 62
107 99 165 77 117 79 119 288 460 83 135 156 250 162 257 5 7 10 14 10 16 0 3
56 98 125 212 69 114 125 209 125 211 0 1 40 69 88 151 49 81 106 179 128 216
21 38 46 81 55 95 30 50 445 777 452 792 4 8 17 31 28 50 28 47 381 615 447
720 16 25 89 142 162 260 73 118 143 231 155 250 97 151 238 386 272 453 138
276 183 649 114 952 -43 188 -194 502 -440 915 -47 80 -88 150 -90 155 -2 6
-23 39 -46 75 -35 55 -156 246 -198 314 -7 11 -28 45 -47 75 -19 31 -39 64
-45 73 -5 10 -60 100 -122 200 -61 101 -124 206 -139 233 -15 28 -235 397
-489 820 -254 424 -468 781 -476 795 -8 14 -19 32 -25 40 -6 8 -23 35 -36 60
-14 25 -71 122 -128 215 -57 94 -111 184 -120 200 -10 17 -118 197 -240 400
-122 204 -230 384 -240 400 -9 17 -54 90 -99 164 -44 73 -81 134 -81 136 0 1
-31 53 -69 116 -91 150 -223 369 -237 394 -82 145 -1086 1804 -1116 1842 -44
58 -213 223 -255 250 -16 10 -30 20 -33 24 -14 17 -142 96 -223 138 -136 70
-332 141 -434 156 -80 12 -100 15 -123 21 -14 4 -626 8 -1360 10 -734 2 -1545
5 -1803 7 -257 2 -468 3 -470 1z"/>
</g>
</svg>
