<?xml version="1.0" encoding="utf-8"?>
<!-- Generator: Adobe Illustrator 22.0.0, SVG Export Plug-In . SVG Version: 6.00 Build 0)  -->
<svg version="1.1" id="Layer_1" xmlns="http://www.w3.org/2000/svg" xmlns:xlink="http://www.w3.org/1999/xlink" x="0px" y="0px"
	 viewBox="0 0 640 480" style="enable-background:new 0 0 640 480;" xml:space="preserve">
<style type="text/css">
	.st0{fill:#3174F0;}
	.st1{fill:#E63125;}
	.st2{fill:#1F8238;}
	.st3{fill:#E39F00;}
	.st4{fill:#249A41;}
	.st5{fill:#F6AD01;}
</style>
<g>
	<path class="st0" d="M214.5,34.91c14.08-0.61,28.18,0.06,42.26,0.17c51.54,86.37,103.69,172.38,155.3,258.71
		c-12.22,21.58-24.63,43.12-38.1,63.95c0.86-8.79,2.34-18.23-2.2-26.34c-7.39-13.27-15.89-25.92-23.16-39.26
		c-11.6-20.9-24.59-41.02-36.58-61.71c-0.98-1.73-2.11-3.36-3.37-4.88c-35.18-57.38-69.29-115.47-104.41-172.9
		c-2.54-3.83-3.59-8.98-1.45-13.22C205.17,35.48,210.31,34.81,214.5,34.91z"/>
</g>
<g>
	<path class="st1" d="M256.76,35.07c14.44-0.28,28.9-0.02,43.34-0.17c12.26-0.24,24.55,5.71,31.9,15.5
		c26.16,43.47,52.25,86.99,78.33,130.51c8.49,15.15,18.97,29.19,26.19,45.04c4.82,9.98,3.67,22.17-1.9,31.59
		c-7.45,12.12-15.01,24.17-22.54,36.23C360.45,207.46,308.31,121.44,256.76,35.07z"/>
</g>
<g>
	<path class="st2" d="M308.65,225.54c1.26,1.52,2.38,3.15,3.37,4.88c11.99,20.69,24.98,40.82,36.58,61.71
		c-8.34,11.48-14.62,24.39-22.22,36.4l-0.3,0.47c-12.24-9.35-24.82-18.25-37.22-27.41c-2.44-1.61-5-3.13-6.8-5.49
		c8.97-14.6,18.46-28.95,25.87-44.43C311.65,243.48,310.83,234.02,308.65,225.54z"/>
</g>
<g>
	<path class="st3" d="M326.38,328.53c7.6-12.01,13.88-24.92,22.22-36.4c7.27,13.34,15.77,25.99,23.16,39.26
		c4.54,8.11,3.06,17.55,2.2,26.34c-0.58,1.56-1.68,2.86-2.63,4.2C356.33,350.83,341.03,340.1,326.38,328.53z"/>
</g>
<g>
	<path class="st4" d="M206.42,423.08c25.22-42.33,50.61-84.55,75.64-126.98c1.8,2.36,4.36,3.88,6.8,5.49
		c12.39,9.16,24.98,18.06,37.22,27.41c-23.13,38.19-45.94,76.59-69.13,114.75c-13.17,0.97-26.73,0.25-40.04,0.49
		c-5.23-0.02-11.94-0.32-14.58-5.72C199.63,433.04,203.66,427.61,206.42,423.08z"/>
</g>
<g>
	<path class="st5" d="M326.07,329l0.3-0.47c14.65,11.57,29.95,22.3,44.95,33.41c-12.63,20.64-24.55,41.72-37.34,62.26
		c-6.31,11.38-18.97,18.95-31.94,19.48c-15,1.46-30.09,0-45.1,0.08C280.14,405.59,302.95,367.19,326.07,329z"/>
</g>
</svg>
